# xmcd
#
# Track frame offsets: 
#        150
#        15672
#        33552
#        50530
#        67437
#
# Disc length: 1123 seconds
#
# Revision: 2
# Processed by: cddbd v1.5.2PL0 Copyright (c) Steve Scherf et al.
# Submitted via: ExactAudioCopy v1.3
#
DISCID=45046105
DTITLE=Charlie Wilson - Absolutely [CDS)
DYEAR=2000
DGENRE=R&B
TTITLE0=Absolutely (Radio Edit)
TTITLE1=Absolutely (Album Version)
TTITLE2=Absolutely (Main Version)
TTITLE3=Absolutely (TV Version)
TTITLE4=Absolutely (Instrumental Version)
EXTD=
EXTT0=
EXTT1=
EXTT2=
EXTT3=
EXTT4=
PLAYORDER=
